# xmcd
#
# Track frame offsets:
#	182
#	9682
#	26020
#	49447
#	54110
#	84815
#	136017
#	160712
#	218715
#	246742
#	263747
#	293617
#
# Disc length: 4634 seconds
#
# Revision: 0
# Processed by: cddbd v1.5.2PL0 Copyright (c) Steve Scherf et al.
# Submitted via: audiograbber 1.83.01
#
DISCID=9c12180c
DTITLE=Dream Theater - Original Album Classics [CD 4) - Metropolis Pt. 2: Scene
DTITLE=s From A Memory
DYEAR=1999
DGENRE=Progressive Metal
TTITLE0=Act I, Scene One: Regression
TTITLE1=Act I, Scene Two: I. Overture 1928
TTITLE2=Act I, Scene Two: II. Strange Déjà Vu
TTITLE3=Act I, Scene Three: I. Through My Words
TTITLE4=Act I, Scene Three: II. Fatal Tragedy
TTITLE5=Act I, Scene Four: Beyond This Life
TTITLE6=Act I, Scene Five: Through Her Eyes
TTITLE7=Act II, Scene Six: Home
TTITLE8=Act II, Scene Seven: I. The Dance Of Eternity
TTITLE9=Act II, Scene Seven: II. One Last Time
TTITLE10=Act II, Scene Eight: The Spirit Carries On
TTITLE11=Act II, Scene Nine: Finally Free
EXTD=
EXTT0=
EXTT1=
EXTT2=
EXTT3=
EXTT4=
EXTT5=
EXTT6=
EXTT7=
EXTT8=
EXTT9=
EXTT10=
EXTT11=
PLAYORDER=
